<svg id="Layer_1" data-name="Layer 1" xmlns="http://www.w3.org/2000/svg" xmlns:xlink="http://www.w3.org/1999/xlink" width="190" height="190" viewBox="0 0 190 190"><defs><style>.cls-1{fill:none;}.cls-2{opacity:0.61;isolation:isolate;}.cls-3{clip-path:url(#clip-path);}.cls-4{clip-path:url(#clip-path-2);}.cls-5{fill:#dbb3a9;}</style><clipPath id="clip-path"><rect id="SVGID" class="cls-1" x="5.6" y="5.6" width="178.8" height="178.8"/></clipPath><clipPath id="clip-path-2"><rect id="SVGID-2" data-name="SVGID" class="cls-1" x="5.36" y="5.36" width="179.28" height="179.28"/></clipPath></defs><title>Artboard 3</title><g class="cls-2"><g class="cls-3"><g class="cls-4"><path class="cls-5" d="M95.23,9a86.23,86.23,0,1,0,86.23,86.22A86.36,86.36,0,0,0,95.23,9Zm0,175.16a88.94,88.94,0,1,1,88.93-88.94A89,89,0,0,1,95.23,184.19Z"/><polygon class="cls-5" points="64.14 89.9 64.14 89.25 64.36 88.61 64.41 87.96 64.2 86.93 64.41 86.61 64.41 85.74 64.09 85.09 64.09 84.06 64.25 83.63 64.36 82.98 64.14 82.23 64.31 81.47 64.14 80.55 64.47 80.17 64.47 79.42 64.41 78.39 64.36 77.74 64.14 77.09 64.31 76.66 64.2 75.9 64.25 74.87 64.31 74.17 64.31 73.58 64.41 73.04 64.47 72.33 64.09 71.47 64.2 70.87 65.17 70.01 65.77 70.17 66.52 70.12 67.17 70.22 67.93 70.22 68.9 70.66 69.01 71.63 68.95 72.17 68.95 73.58 68.79 74.5 68.85 75.14 68.79 75.9 68.9 76.33 68.9 77.14 68.74 78.12 68.95 78.6 69.01 79.25 69.01 79.96 68.9 80.71 68.74 81.69 68.79 82.39 68.74 82.88 68.95 83.74 68.9 84.28 68.68 85.04 68.68 85.79 68.9 86.28 68.74 87.04 68.95 87.74 68.79 88.77 68.95 89.31 69.01 90.06 68.63 90.66 68.85 91.2 68.95 92.06 68.95 92.77 68.58 93.69 68.95 94.12 68.95 95.09 68.9 95.85 68.9 96.44 68.85 97.09 68.74 98.01 68.79 98.61 68.74 99.47 68.85 99.9 68.74 100.88 68.63 101.58 68.68 102.12 68.85 103.04 68.95 103.58 68.63 104.44 68.68 104.99 68.9 105.69 68.85 106.39 68.85 107.31 68.68 107.74 68.79 108.66 68.63 109.42 68.79 110.01 68.9 110.61 68.79 111.42 67.77 112.07 67.06 112.39 66.47 112.23 65.87 112.18 64.85 112.34 63.98 111.53 64.03 110.61 64.36 109.96 64.03 109.2 64.03 108.72 64.14 107.74 64.25 107.26 64.31 106.55 64.2 105.58 64.2 103.42 64.31 102.72 63.98 102.23 64.03 101.53 64.14 100.61 64.25 100.07 64.14 99.36 63.93 98.5 63.98 97.85 63.98 96.93 64.09 96.5 63.17 95.47 62.68 95.85 61.93 95.63 61.17 95.53 60.47 95.9 59.87 95.8 59.28 95.63 58.2 95.63 57.82 95.8 56.25 95.8 55.6 95.74 54.68 95.85 54.14 95.85 53.17 95.8 52.57 95.69 51.92 95.8 51.22 95.63 50.63 95.63 49.71 95.96 49.06 95.58 47.44 95.58 46.95 95.63 46.25 95.74 45.65 96.44 45.44 97.15 45.6 97.85 45.28 98.72 45.6 99.42 45.44 99.8 45.33 100.88 45.38 101.26 45.55 102.12 45.6 102.88 45.65 103.53 45.28 104.12 45.44 105.09 45.28 105.64 45.65 106.5 45.49 107.04 45.6 107.8 45.6 108.55 45.44 109.15 45.33 109.91 45.33 110.82 45.38 111.26 44.68 111.91 44.09 111.91 43.22 112.28 42.57 112.23 41.71 111.91 40.79 111.36 41.01 110.77 40.68 109.8 41.06 109.09 41.06 108.61 40.68 107.96 41.06 106.99 40.84 106.28 40.73 105.74 40.9 104.88 40.73 104.23 41.06 103.47 41.01 102.55 41.11 102.01 40.73 101.36 40.95 100.61 40.9 99.96 41.06 99.25 41.01 98.28 40.79 96.98 40.84 96.23 40.19 95.8 39.27 95.74 38.73 95.53 38.19 95.69 37.17 95.74 36.57 95.04 36.73 94.23 36.68 93.36 36.46 92.5 36.79 91.8 37.38 90.98 38.14 91.2 38.79 91.09 39.49 90.98 40.14 91.09 40.79 90.55 40.68 89.96 40.68 88.93 40.84 88.33 40.73 87.52 40.95 86.82 40.95 85.74 40.79 84.88 40.68 84.23 40.79 83.31 40.84 82.71 40.73 82.06 40.73 81.52 40.84 80.82 40.84 80.12 40.68 79.36 40.9 78.71 40.9 78.12 40.73 77.31 40.68 76.71 40.84 75.79 40.68 75.14 40.9 74.5 40.73 74.01 40.68 72.93 40.73 72.5 40.73 71.74 40.68 71.14 41.38 70.12 42.47 70.33 42.95 70.01 43.71 70.01 44.47 70.33 45.44 71.03 45.28 71.52 45.22 72.22 45.33 72.87 45.44 73.95 45.55 74.6 45.49 75.2 45.33 75.74 45.38 76.66 45.22 77.36 45.33 78.12 45.38 78.71 45.49 79.25 45.49 79.96 45.55 80.88 45.33 81.42 45.44 82.06 45.49 82.93 45.44 83.79 45.22 84.28 45.28 84.98 45.6 85.74 45.49 86.44 45.49 87.15 45.28 87.74 45.6 88.39 45.82 89.09 45.6 89.96 45.65 90.61 46.25 91.47 46.95 91.58 47.87 91.47 48.63 91.25 49.11 91.42 49.98 91.47 50.84 91.25 51.66 91.31 52.09 91.25 52.84 91.47 53.76 91.25 54.3 91.58 55.28 91.58 55.93 91.25 56.36 91.36 57.33 91.58 58.2 91.58 58.79 91.42 59.6 91.58 60.09 91.36 60.68 91.47 61.39 91.36 62.47 91.31 63.06 91.25 63.71 91.47 64.36 90.55 64.14 89.9"/><polygon class="cls-5" points="149.07 102.23 149.18 101.85 149.18 100.82 149.4 100.12 149.83 99.47 149.99 98.82 149.94 98.23 150.32 97.69 150.48 96.66 150.64 96.34 150.91 95.63 151.29 94.61 151.34 94.23 151.72 93.53 151.67 92.82 151.88 92.17 151.94 91.47 152.43 90.44 152.53 89.9 152.75 89.25 152.69 88.71 153.13 87.69 153.45 87.15 153.67 86.39 153.78 85.69 153.78 85.09 153.94 84.39 154.21 83.9 154.59 83.04 154.75 82.06 154.69 81.52 154.97 80.66 155.13 79.96 155.56 79.47 155.67 78.55 155.78 78.23 155.78 77.14 156.21 76.66 156.21 75.95 156.48 75.25 156.86 74.6 156.8 73.9 157.07 73.31 157.56 72.55 157.4 71.85 157.67 71.25 158.05 70.55 158.1 69.58 158.86 69.2 159.78 69.74 160.26 70.06 161.07 70.22 161.78 70.39 162.26 71.41 161.99 71.95 161.83 72.55 161.67 73.31 161.51 74.01 161.45 74.6 161.13 75.31 161.02 76.33 160.59 76.87 160.37 77.42 160.43 78.33 159.94 79.04 160.05 79.74 159.94 80.28 159.45 81.09 159.24 81.85 159.13 82.28 159.02 82.98 158.8 83.58 158.43 84.33 158.48 85.04 158.1 86.01 158.05 86.71 157.78 87.09 157.62 87.74 157.24 88.82 157.18 89.36 157.02 90.01 156.7 90.55 156.32 91.53 156.43 91.96 155.94 92.66 155.94 93.53 155.88 94.28 155.67 94.77 155.34 95.74 155.07 96.17 154.97 96.88 154.59 97.53 154.69 98.17 154.26 99.04 154.16 99.58 153.72 100.28 153.72 101.04 153.51 101.63 153.34 102.5 152.97 103.2 152.97 104.07 152.69 104.5 152.53 105.09 152.26 106.01 151.99 106.88 151.99 107.42 151.61 108.34 151.45 108.66 151.51 109.74 151.34 110.23 150.91 111.04 150.69 111.69 149.78 112.39 149.13 112.45 148.69 112.12 148.05 112.18 146.97 111.74 146.8 111.09 146.37 110.23 146.26 109.53 145.99 109.04 145.83 108.28 145.4 107.64 145.07 106.88 144.97 106.5 144.86 105.64 144.37 105.15 143.99 104.39 143.99 103.63 143.5 102.88 143.29 102.23 143.13 101.63 142.75 101.15 142.53 100.55 142.53 99.58 142.32 99.15 142.04 98.55 141.67 97.8 141.56 97.09 141.18 96.44 141.07 95.85 140.69 95.09 140.26 94.39 140.31 93.85 139.83 93.04 139.88 92.5 139.23 91.74 139.23 91.25 139.13 90.66 138.64 89.69 138.64 89.15 138.26 88.44 138.04 87.85 137.56 87.09 137.34 86.61 136.8 86.39 136.75 87.42 136.31 88.12 136.21 88.66 135.83 89.31 135.72 89.96 135.45 90.66 135.4 91.15 135.23 91.8 134.64 92.71 134.64 93.2 134.48 94.06 133.94 94.93 133.99 95.36 133.45 96.07 133.29 96.98 133.29 97.69 133.07 98.12 132.59 98.72 132.15 99.74 132.04 100.17 131.66 100.77 131.45 101.69 131.45 102.39 131.29 103.09 130.75 103.58 130.69 104.55 130.37 105.09 130.26 105.58 129.77 106.28 129.56 107.2 129.34 107.96 129.13 108.55 129.18 109.31 128.58 109.8 128.69 110.55 128.48 111.04 127.94 111.74 127.34 112.45 126.48 112.66 125.88 112.72 125.23 112.55 124.47 111.8 124.26 111.2 124.04 110.5 123.61 109.85 123.72 109.26 123.34 108.5 122.91 107.64 122.69 106.93 122.69 106.44 122.31 105.85 122.42 105.2 122.1 104.44 121.88 103.85 121.56 103.26 121.5 102.55 121.07 101.69 121.12 100.82 120.8 100.34 120.75 99.36 120.53 98.77 120.2 98.39 120.15 97.36 119.83 96.66 119.66 96.23 119.23 95.53 119.28 94.61 119.07 94.23 118.53 93.31 118.64 92.61 118.2 91.85 118.15 91.42 117.72 90.44 117.83 89.74 117.39 89.36 117.23 88.39 116.91 88.01 116.8 87.04 116.58 86.61 116.64 85.74 116.42 85.2 115.99 84.33 115.66 83.63 115.56 83.09 115.56 82.44 115.18 81.58 114.96 81.04 114.85 80.44 114.74 79.74 114.64 78.77 114.42 78.17 114.26 77.52 113.88 76.87 113.66 76.06 113.28 75.52 113.39 74.87 113.01 74.33 112.96 73.63 112.64 72.66 112.58 71.95 112.09 71.36 112.85 70.44 113.34 70.22 113.99 69.79 114.58 69.79 115.45 69.41 116.1 69.79 116.2 70.77 116.53 71.31 116.96 71.79 117.02 72.44 117.39 73.14 117.61 74.01 117.5 74.55 117.93 75.63 118.31 76.06 118.2 77.04 118.58 77.69 118.58 78.22 119.02 78.82 119.12 79.52 119.56 80.17 119.45 81.09 119.88 81.69 120.1 82.44 120.04 83.14 120.26 83.63 120.64 84.23 120.8 85.31 120.85 85.69 121.23 86.33 121.39 87.36 121.5 87.74 121.61 88.5 122.1 89.25 122.04 90.17 122.47 90.66 122.58 91.31 122.96 92.28 123.02 92.71 123.18 93.58 123.29 94.23 123.72 94.98 124.04 95.69 124.04 96.07 124.26 97.04 124.69 97.53 124.58 98.55 124.8 99.15 125.02 99.58 125.23 100.61 125.34 101.04 125.83 101.69 125.88 102.72 126.04 103.15 126.37 103.36 126.96 102.72 127.07 102.07 127.45 101.09 127.61 100.34 127.83 99.74 128.04 99.25 128.04 98.34 128.58 97.85 128.8 97.25 128.75 96.23 129.34 95.74 129.4 95.09 129.77 94.39 129.99 93.63 130.21 93.09 130.58 92.55 130.64 91.8 130.8 91.2 130.96 90.33 131.23 89.69 131.66 89.15 132.04 88.17 132.21 87.74 132.26 86.98 132.75 86.28 132.75 85.74 133.23 84.71 133.45 84.28 133.5 83.52 133.88 82.77 134.15 82.17 134.37 81.25 134.64 80.77 134.37 79.58 134.8 78.66 135.56 78.5 136.64 78.5 137.07 78.55 138.1 78.66 138.91 79.42 139.13 80.12 139.45 80.77 139.61 81.31 140.15 82.06 140.15 82.44 140.59 83.2 140.69 83.9 141.07 84.5 141.13 85.14 141.5 86.01 141.67 86.55 142.21 87.31 142.15 87.85 142.59 88.44 142.59 89.09 143.23 90.06 143.23 90.71 143.72 91.2 143.61 91.85 143.88 92.66 144.37 93.09 144.48 93.69 144.96 94.34 144.96 95.25 145.07 96.07 145.56 96.71 145.67 97.04 145.83 97.9 146.32 98.44 146.37 99.15 146.91 100.01 146.91 100.5 147.29 101.47 147.45 101.8 147.83 102.66 148.1 103.36 148.32 103.2 149.07 102.23"/><polygon class="cls-5" points="116.64 52.01 116.26 52.6 116.04 53.09 115.93 53.79 115.12 54.01 114.69 53.57 114.04 53.25 113.56 53.2 112.8 52.92 112.15 52.55 111.77 52.49 111.18 52.28 110.31 51.74 109.77 51.52 109.18 51.36 108.74 51.25 108.2 51.14 107.66 51.14 106.8 50.98 106.47 50.87 105.01 50.38 104.58 50.38 103.66 50.49 103.07 50.44 102.58 50.44 101.93 50.17 101.44 50.17 100.91 50.44 100.15 50.22 99.72 50.33 99.07 50.33 98.26 50.38 97.66 50.49 97.07 50.71 96.53 50.98 95.98 51.03 95.61 51.25 94.8 51.41 94.15 51.79 93.61 52.01 93.12 52.17 92.63 52.6 92.36 52.92 91.55 53.14 91.12 53.47 90.85 54.06 90.47 54.22 89.82 54.71 89.55 55.36 89.17 55.68 89.06 56.28 88.53 56.6 88.42 57.14 87.98 57.74 87.66 58.44 87.66 58.87 87.44 59.63 87.28 60.17 87.33 60.87 86.9 61.58 87.01 62.12 87.06 62.71 86.96 63.2 86.8 63.84 87.12 64.44 87.17 64.98 87.01 65.74 87.44 66.87 87.39 67.47 87.71 67.95 87.82 68.71 87.82 69.25 87.88 69.79 88.09 70.39 88.36 70.82 88.42 71.63 88.53 72.22 88.85 72.55 89.06 73.36 89.23 73.74 89.34 74.28 89.5 74.87 89.71 75.69 89.98 76.12 90.04 76.87 90.25 77.2 90.58 77.95 90.69 78.28 90.85 79.04 91.23 79.63 91.44 80.01 91.77 80.55 91.71 81.09 92.25 81.9 92.31 82.44 92.69 82.71 92.9 83.36 93.07 84.06 93.28 84.39 93.72 85.2 93.82 85.79 93.88 86.12 94.15 86.88 94.63 87.9 95.17 88.61 95.34 88.93 95.39 89.52 95.55 90.17 96.04 90.82 96.25 91.15 96.36 91.85 96.58 92.23 97.07 92.93 97.28 93.53 97.28 94.07 97.66 94.66 97.72 95.31 97.93 95.69 98.31 96.44 98.36 96.88 98.58 97.53 98.96 98.07 99.12 98.61 99.17 99.25 99.39 99.85 99.39 100.28 99.55 100.82 99.99 101.36 100.04 102.01 100.31 102.66 100.53 103.36 100.42 104.01 100.53 104.55 101.01 105.2 100.8 105.69 101.07 106.12 101.28 106.93 101.17 107.42 101.55 108.01 101.61 109.26 101.82 110.12 101.77 110.55 102.09 111.15 101.88 111.8 102.15 112.45 102.09 112.99 102.09 113.47 102.31 114.28 102.36 114.83 102.04 115.64 102.04 116.01 102.09 116.56 101.93 117.37 102.15 117.91 101.93 118.66 102.04 118.99 101.99 119.69 101.77 120.45 101.66 120.83 101.28 121.53 101.34 122.18 101.07 122.77 100.96 123.42 100.8 123.75 100.74 124.5 100.42 125.1 100.04 125.75 99.93 126.23 99.55 126.88 99.23 127.42 98.85 127.64 98.85 128.34 98.42 128.83 98.2 129.26 97.55 129.69 97.12 130.12 96.74 130.56 96.47 130.99 96.2 131.64 95.72 131.96 95.07 132.45 94.69 132.56 93.93 133.21 93.72 133.31 93.23 133.69 92.47 134.07 92.09 134.45 91.44 134.45 90.85 134.99 90.53 135.15 89.93 135.15 89.12 135.42 88.85 135.69 88.15 135.91 87.5 136.13 86.9 136.23 86.47 136.34 85.61 136.56 84.36 136.56 84.2 136.56 83.44 136.88 83.06 136.77 82.36 136.72 81.77 136.94 81.17 136.88 80.69 137.04 80.09 136.94 79.44 137.15 78.69 137.21 78.25 137.1 77.55 137.15 76.79 136.94 76.31 136.88 75.55 136.88 74.95 136.67 74.47 136.61 73.87 136.77 73.39 136.5 72.58 136.34 72.09 136.4 71.71 136.02 70.85 135.91 70.31 135.75 69.77 135.75 69.22 135.75 68.52 135.37 68.09 135.26 67.55 134.77 67.01 134.72 66.52 134.61 65.98 134.4 65.39 133.8 64.9 133.64 64.31 133.37 63.71 133.26 63.28 132.02 63.22 131.64 63.33 131.1 63.28 130.4 63.55 129.8 63.6 129.1 64.03 128.83 64.47 129.15 65.12 129.53 65.66 129.96 66.09 130.07 66.63 130.56 67.17 130.88 67.77 130.88 68.41 131.42 68.95 131.42 69.6 131.58 70.25 131.96 70.69 132.12 71.33 132.4 71.98 132.34 72.36 132.5 73.06 132.94 73.55 132.88 74.14 132.94 74.95 133.21 75.44 133.26 75.93 133.26 76.58 133.48 77.28 133.31 77.98 133.37 78.42 133.42 79.28 133.42 79.88 133.58 80.36 133.58 80.96 133.37 81.55 133.53 81.98 133.31 82.79 133.1 83.28 133.04 83.82 132.99 85.17 133.1 85.88 132.88 86.52 132.77 86.85 132.4 87.71 132.4 88.25 132.12 88.8 132.07 89.06 131.48 89.88 131.37 90.31 131.1 90.8 130.99 91.5 130.4 91.88 130.29 92.2 129.96 93.01 129.47 93.34 129.21 93.88 128.72 94.15 128.23 94.47 127.58 94.96 127.31 95.34 126.56 95.55 126.23 96.09 125.04 96.47 124.39 96.74 123.91 96.96 123.37 97.12 122.93 97.28 122.28 97.55 121.47 97.61 120.88 97.55 120.34 97.66 119.91 97.77 119.31 98.04 118.56 97.98 117.96 98.2 117.53 98.2 116.88 98.09 115.96 98.09 115.58 98.04 115.15 98.04 114.34 98.15 113.74 98.09 113.15 97.98 112.45 97.93 111.96 97.93 111.15 97.55 110.5 97.61 109.36 97.39 108.72 97.44 108.12 97.12 107.58 97.12 107.15 96.96 106.61 97.17 105.85 96.85 105.09 96.9 104.5 96.58 103.96 96.69 103.53 96.36 102.82 96.2 102.39 96.09 101.69 95.72 101.2 95.66 100.72 95.34 100.07 95.28 99.31 94.9 98.82 94.96 98.28 94.74 97.85 94.36 97.15 94.2 96.55 93.82 96.23 93.61 95.47 93.34 94.88 93.12 94.28 93.07 93.8 92.9 93.47 92.47 92.82 92.31 92.39 92.2 91.63 91.71 91.15 91.39 90.66 91.39 90.23 91.23 89.58 90.74 89.09 90.8 88.55 90.31 88.06 90.25 87.25 89.93 86.88 89.61 86.28 89.34 85.52 89.12 85.2 88.8 84.5 88.58 83.9 88.58 83.42 88.36 82.82 88.15 82.5 87.71 81.74 87.44 81.2 87.39 80.71 87.01 80.17 86.96 79.69 86.58 79.09 86.47 78.39 86.2 78.06 86.25 77.31 85.77 76.6 85.88 76.01 85.55 75.47 85.33 74.98 85.12 74.44 84.96 74.01 85.06 73.31 84.63 72.55 84.63 71.95 84.31 71.52 84.25 71.03 84.04 70.17 84.15 69.74 83.82 69.25 83.71 68.5 83.5 67.95 83.39 66.66 83.44 66.06 83.33 65.68 83.33 64.98 83.28 64.17 83.28 63.68 83.23 62.98 83.44 62.66 83.28 61.79 83.28 61.36 83.5 60.76 83.5 60.12 83.82 59.52 83.93 58.98 84.25 58.49 84.25 57.74 84.47 57.14 84.79 56.66 85.23 56.12 85.44 55.63 85.61 54.98 85.82 54.49 86.47 53.9 86.85 53.41 87.01 53.2 87.44 52.49 88.04 51.95 88.31 51.57 88.85 51.14 89.06 50.82 89.77 50.6 90.09 50.38 90.8 50.01 91.34 49.52 91.93 49.14 92.96 48.55 93.28 48.49 94.09 48.11 94.58 48.11 95.28 47.79 95.82 47.52 96.25 47.63 97.01 47.36 97.5 47.3 98.04 47.19 98.74 47.03 99.39 46.92 100.04 47.03 100.47 46.98 101.28 46.98 101.88 46.98 102.2 46.92 102.91 46.98 103.55 46.98 104.26 46.98 104.74 47.09 105.18 46.98 105.77 47.25 106.47 47.03 107.28 47.41 107.61 47.36 108.47 47.57 109.07 47.73 109.5 47.73 109.93 48.11 110.64 48.44 111.39 48.55 111.88 48.55 112.37 48.98 112.96 49.03 113.61 49.36 114.15 49.52 114.47 49.84 115.18 50.33 115.66 50.44 116.42 50.76 116.58 51.63 116.64 52.01"/></g></g></g></svg>